<?xml version="1.0" encoding="UTF-8"?>
<svg xmlns="http://www.w3.org/2000/svg" xmlns:xlink="http://www.w3.org/1999/xlink" viewBox="0 0 50 50" width="50px" height="50px">
<g id="surface40562876">
<path style=" stroke:none;fill-rule:nonzero;fill:rgb(85.882354%,88.627452%,93.725491%);fill-opacity:1;" d="M 25 4.167969 C 13.492188 4.167969 4.167969 13.492188 4.167969 25 C 4.167969 36.507812 13.492188 45.832031 25 45.832031 C 36.507812 45.832031 45.832031 36.507812 45.832031 25 C 45.832031 13.492188 36.507812 4.167969 25 4.167969 Z M 25 7.292969 C 34.765625 7.292969 42.707031 15.234375 42.707031 25 C 42.707031 34.765625 34.765625 42.707031 25 42.707031 C 15.234375 42.707031 7.292969 34.765625 7.292969 25 C 7.292969 15.234375 15.234375 7.292969 25 7.292969 Z M 30.261719 11.484375 C 30.203125 11.484375 30.140625 11.507812 30.089844 11.558594 L 15.296875 26.113281 C 15.132812 26.277344 15.246094 26.558594 15.476562 26.558594 L 25.207031 26.558594 C 25.417969 26.558594 25.539062 26.796875 25.421875 26.972656 L 18 37.664062 C 17.820312 37.917969 18.160156 38.214844 18.386719 38.003906 L 34.921875 22.847656 C 35.097656 22.6875 34.984375 22.394531 34.746094 22.394531 L 25.496094 22.394531 C 25.300781 22.394531 25.175781 22.1875 25.265625 22.015625 L 30.503906 11.867188 C 30.605469 11.667969 30.4375 11.476562 30.261719 11.484375 Z M 30.261719 11.484375 "/>
</g>
</svg>
