<?xml version="1.0" encoding="UTF-8"?>
<svg xmlns="http://www.w3.org/2000/svg" xmlns:xlink="http://www.w3.org/1999/xlink" viewBox="0 0 49 49" width="49px" height="49px">
<g id="surface40529078">
<path style=" stroke:none;fill-rule:nonzero;fill:rgb(21.960784%,55.686277%,23.529412%);fill-opacity:1;" d="M 17.5625 19.519531 L 12.554688 22.292969 C 12.367188 22.394531 12.25 22.585938 12.25 22.792969 L 12.25 28.339844 C 12.25 28.546875 12.367188 28.738281 12.554688 28.84375 L 17.5625 31.617188 C 17.75 31.71875 17.980469 31.71875 18.167969 31.617188 L 23.179688 28.84375 C 23.363281 28.738281 23.480469 28.546875 23.480469 28.339844 L 23.480469 22.792969 C 23.480469 22.585938 23.363281 22.394531 23.175781 22.292969 L 18.167969 19.519531 C 18.074219 19.46875 17.96875 19.441406 17.863281 19.441406 C 17.757812 19.441406 17.65625 19.46875 17.5625 19.519531 M 43.335938 24.511719 L 42.5 24.976562 C 42.46875 24.992188 42.449219 25.023438 42.449219 25.058594 L 42.449219 25.984375 C 42.449219 26.019531 42.46875 26.050781 42.5 26.066406 L 43.335938 26.53125 C 43.367188 26.546875 43.40625 26.546875 43.4375 26.53125 L 44.269531 26.066406 C 44.300781 26.050781 44.320312 26.019531 44.320312 25.984375 L 44.320312 25.058594 C 44.320312 25.023438 44.300781 24.992188 44.269531 24.976562 L 43.433594 24.511719 C 43.421875 24.503906 43.402344 24.5 43.386719 24.5 C 43.367188 24.5 43.351562 24.503906 43.335938 24.511719 "/>
<path style=" stroke:none;fill-rule:nonzero;fill:rgb(85.882354%,88.627452%,93.725491%);fill-opacity:1;" d="M 36.496094 13.640625 L 34.058594 12.28125 C 33.980469 12.238281 33.886719 12.238281 33.8125 12.285156 C 33.734375 12.328125 33.6875 12.410156 33.6875 12.5 L 33.6875 20.71875 L 31.4375 19.472656 C 31.34375 19.421875 31.238281 19.394531 31.136719 19.394531 C 31.03125 19.394531 30.925781 19.421875 30.832031 19.472656 L 25.824219 22.246094 C 25.636719 22.347656 25.519531 22.539062 25.519531 22.746094 L 25.519531 28.292969 C 25.519531 28.5 25.636719 28.691406 25.824219 28.792969 L 30.835938 31.566406 C 31.019531 31.671875 31.253906 31.671875 31.441406 31.566406 L 36.449219 28.792969 C 36.632812 28.691406 36.75 28.5 36.75 28.292969 L 36.75 14.074219 C 36.75 13.894531 36.652344 13.730469 36.496094 13.640625 Z M 33.550781 27.007812 L 31.273438 28.269531 C 31.191406 28.316406 31.085938 28.316406 31 28.269531 L 28.722656 27.007812 C 28.636719 26.960938 28.582031 26.875 28.582031 26.78125 L 28.582031 24.257812 C 28.582031 24.164062 28.636719 24.078125 28.722656 24.03125 L 31 22.769531 L 30.996094 22.769531 C 31.039062 22.746094 31.085938 22.734375 31.136719 22.734375 C 31.183594 22.734375 31.230469 22.75 31.273438 22.769531 L 33.550781 24.03125 C 33.636719 24.078125 33.6875 24.167969 33.6875 24.261719 L 33.6875 26.78125 C 33.6875 26.875 33.636719 26.960938 33.550781 27.007812 Z M 33.550781 27.007812 "/>
<path style=" stroke:none;fill-rule:nonzero;fill:rgb(18.039216%,49.019608%,19.607843%);fill-opacity:1;" d="M 17.5625 19.519531 L 12.25 28.339844 C 12.25 28.546875 12.367188 28.738281 12.554688 28.84375 L 17.5625 31.617188 C 17.75 31.71875 17.980469 31.71875 18.167969 31.617188 L 23.480469 22.792969 C 23.480469 22.585938 23.363281 22.394531 23.175781 22.292969 L 18.167969 19.519531 C 18.074219 19.46875 17.96875 19.441406 17.863281 19.441406 C 17.757812 19.441406 17.65625 19.46875 17.5625 19.519531 "/>
<path style=" stroke:none;fill-rule:nonzero;fill:rgb(29.803923%,68.627453%,31.37255%);fill-opacity:1;" d="M 17.5625 19.519531 L 12.554688 22.292969 C 12.367188 22.394531 12.25 22.585938 12.25 22.792969 L 17.5625 31.617188 C 17.75 31.71875 17.980469 31.71875 18.167969 31.617188 L 23.175781 28.84375 C 23.363281 28.738281 23.480469 28.546875 23.480469 28.339844 L 18.167969 19.519531 C 18.074219 19.46875 17.96875 19.441406 17.863281 19.441406 C 17.757812 19.441406 17.65625 19.46875 17.5625 19.519531 "/>
<path style=" stroke:none;fill-rule:nonzero;fill:rgb(85.882354%,88.627452%,93.725491%);fill-opacity:1;" d="M 48.695312 22.246094 L 43.6875 19.472656 C 43.59375 19.421875 43.488281 19.394531 43.386719 19.394531 C 43.28125 19.394531 43.175781 19.421875 43.082031 19.472656 L 38.074219 22.246094 C 37.886719 22.347656 37.769531 22.542969 37.769531 22.757812 L 37.769531 28.28125 C 37.769531 28.496094 37.886719 28.691406 38.074219 28.796875 L 43.085938 31.570312 C 43.273438 31.671875 43.5 31.671875 43.691406 31.570312 L 46 30.289062 C 46.210938 30.171875 46.210938 29.871094 45.996094 29.753906 L 40.972656 27.011719 C 40.886719 26.960938 40.832031 26.875 40.832031 26.777344 L 40.832031 24.261719 C 40.832031 24.167969 40.882812 24.078125 40.964844 24.035156 L 43.246094 22.773438 C 43.289062 22.75 43.335938 22.738281 43.382812 22.738281 C 43.433594 22.738281 43.480469 22.75 43.523438 22.773438 L 45.804688 24.035156 C 45.886719 24.082031 45.9375 24.167969 45.9375 24.261719 L 45.9375 26.316406 C 45.9375 26.402344 45.984375 26.484375 46.058594 26.527344 C 46.136719 26.570312 46.230469 26.570312 46.308594 26.527344 L 48.753906 25.105469 C 48.90625 25.015625 49 24.855469 49 24.679688 L 49 22.761719 C 49 22.546875 48.882812 22.347656 48.695312 22.246094 Z M 10.925781 22.246094 L 5.917969 19.472656 C 5.824219 19.421875 5.71875 19.394531 5.613281 19.394531 C 5.511719 19.394531 5.40625 19.421875 5.3125 19.472656 L 0.304688 22.246094 C 0.117188 22.347656 0 22.542969 0 22.757812 L 0 30.378906 C 0 30.464844 0.046875 30.546875 0.125 30.59375 C 0.199219 30.636719 0.292969 30.636719 0.371094 30.589844 L 2.820312 29.167969 C 2.96875 29.082031 3.0625 28.917969 3.0625 28.742188 L 3.0625 24.257812 C 3.0625 24.164062 3.113281 24.078125 3.195312 24.035156 L 5.476562 22.773438 C 5.519531 22.75 5.566406 22.738281 5.613281 22.738281 C 5.664062 22.738281 5.710938 22.75 5.753906 22.773438 L 8.035156 24.035156 C 8.117188 24.078125 8.167969 24.167969 8.167969 24.261719 L 8.167969 28.746094 C 8.167969 28.921875 8.257812 29.082031 8.410156 29.171875 L 10.859375 30.59375 C 10.9375 30.636719 11.03125 30.636719 11.105469 30.59375 C 11.183594 30.546875 11.230469 30.464844 11.230469 30.378906 L 11.230469 22.757812 C 11.230469 22.546875 11.113281 22.347656 10.925781 22.246094 Z M 10.925781 22.246094 "/>
</g>
</svg>
