<?xml version="1.0" encoding="UTF-8"?>
<svg xmlns="http://www.w3.org/2000/svg" xmlns:xlink="http://www.w3.org/1999/xlink" viewBox="0 0 50 50" width="50px" height="50px">
<g id="surface40836047">
<path style=" stroke:none;fill-rule:nonzero;fill:rgb(85.882354%,88.627452%,93.725491%);fill-opacity:1;" d="M 25 3.125 C 21.117188 3.125 19 4.113281 17.492188 4.765625 C 16.132812 5.355469 15.316406 6.582031 14.964844 7.738281 C 14.609375 8.894531 14.582031 10.054688 14.582031 11.082031 L 14.582031 14.582031 L 11.085938 14.582031 C 10.054688 14.582031 8.894531 14.609375 7.738281 14.964844 C 6.582031 15.316406 5.355469 16.132812 4.765625 17.492188 C 4.113281 19 3.125 21.117188 3.125 25 C 3.125 28.882812 4.113281 31 4.765625 32.507812 C 5.355469 33.867188 6.582031 34.683594 7.738281 35.035156 C 8.894531 35.390625 10.054688 35.417969 11.085938 35.417969 L 14.582031 35.417969 L 14.582031 38.914062 C 14.582031 39.945312 14.609375 41.105469 14.964844 42.261719 C 15.316406 43.417969 16.132812 44.644531 17.492188 45.234375 C 19 45.886719 21.117188 46.875 25 46.875 C 28.882812 46.875 31 45.886719 32.507812 45.234375 C 33.867188 44.644531 34.683594 43.417969 35.035156 42.261719 C 35.390625 41.105469 35.417969 39.945312 35.417969 38.914062 L 35.417969 35.417969 L 38.914062 35.417969 C 39.945312 35.417969 41.105469 35.390625 42.261719 35.035156 C 43.417969 34.683594 44.644531 33.867188 45.234375 32.507812 C 45.886719 31 46.875 28.882812 46.875 25 C 46.875 21.117188 45.886719 19 45.234375 17.492188 C 44.644531 16.132812 43.417969 15.316406 42.261719 14.964844 C 41.105469 14.609375 39.945312 14.582031 38.914062 14.582031 L 35.417969 14.582031 L 35.417969 11.085938 C 35.417969 10.054688 35.390625 8.894531 35.035156 7.738281 C 34.683594 6.582031 33.867188 5.355469 32.507812 4.765625 C 31 4.113281 28.882812 3.125 25 3.125 Z M 25 6.25 C 28.40625 6.25 29.644531 6.929688 31.261719 7.628906 C 31.695312 7.820312 31.863281 8.054688 32.046875 8.652344 C 32.230469 9.25 32.292969 10.144531 32.292969 11.082031 L 32.292969 15.890625 C 32.265625 16.058594 32.265625 16.226562 32.292969 16.394531 L 32.292969 19.792969 C 32.292969 21.824219 30.675781 23.4375 28.644531 23.4375 L 21.355469 23.4375 C 17.632812 23.4375 14.582031 26.488281 14.582031 30.207031 L 14.582031 32.292969 L 11.085938 32.292969 C 10.144531 32.292969 9.25 32.230469 8.652344 32.046875 C 8.054688 31.863281 7.820312 31.695312 7.628906 31.261719 C 6.929688 29.644531 6.25 28.40625 6.25 25 C 6.25 21.59375 6.929688 20.355469 7.628906 18.738281 C 7.820312 18.304688 8.054688 18.136719 8.652344 17.953125 C 9.25 17.769531 10.144531 17.707031 11.085938 17.707031 L 24.480469 17.707031 C 25.042969 17.714844 25.566406 17.421875 25.851562 16.933594 C 26.136719 16.445312 26.136719 15.84375 25.851562 15.359375 C 25.566406 14.871094 25.042969 14.574219 24.480469 14.582031 L 17.707031 14.582031 L 17.707031 11.082031 C 17.707031 10.144531 17.769531 9.25 17.953125 8.652344 C 18.136719 8.054688 18.304688 7.820312 18.738281 7.628906 C 20.355469 6.929688 21.59375 6.25 25 6.25 Z M 21.355469 9.375 C 20.492188 9.375 19.792969 10.074219 19.792969 10.9375 C 19.792969 11.800781 20.492188 12.5 21.355469 12.5 C 22.21875 12.5 22.917969 11.800781 22.917969 10.9375 C 22.917969 10.074219 22.21875 9.375 21.355469 9.375 Z M 35.417969 17.707031 L 38.914062 17.707031 C 39.855469 17.707031 40.75 17.769531 41.347656 17.953125 C 41.945312 18.136719 42.179688 18.304688 42.371094 18.738281 C 43.070312 20.355469 43.75 21.59375 43.75 25 C 43.75 28.40625 43.070312 29.644531 42.371094 31.261719 C 42.179688 31.695312 41.945312 31.863281 41.347656 32.046875 C 40.75 32.230469 39.855469 32.292969 38.914062 32.292969 L 25.519531 32.292969 C 24.957031 32.285156 24.433594 32.578125 24.148438 33.066406 C 23.863281 33.554688 23.863281 34.15625 24.148438 34.640625 C 24.433594 35.128906 24.957031 35.425781 25.519531 35.417969 L 32.292969 35.417969 L 32.292969 38.917969 C 32.292969 39.855469 32.230469 40.75 32.046875 41.347656 C 31.863281 41.945312 31.695312 42.179688 31.261719 42.371094 C 29.644531 43.070312 28.40625 43.75 25 43.75 C 21.59375 43.75 20.355469 43.070312 18.738281 42.371094 C 18.304688 42.179688 18.136719 41.945312 17.953125 41.347656 C 17.769531 40.75 17.707031 39.855469 17.707031 38.917969 L 17.707031 30.207031 C 17.707031 28.175781 19.324219 26.5625 21.355469 26.5625 L 28.644531 26.5625 C 32.367188 26.5625 35.417969 23.511719 35.417969 19.792969 Z M 28.644531 37.5 C 27.78125 37.5 27.082031 38.199219 27.082031 39.0625 C 27.082031 39.925781 27.78125 40.625 28.644531 40.625 C 29.507812 40.625 30.207031 39.925781 30.207031 39.0625 C 30.207031 38.199219 29.507812 37.5 28.644531 37.5 Z M 28.644531 37.5 "/>
</g>
</svg>
