<?xml version="1.0" encoding="UTF-8"?>
<svg xmlns="http://www.w3.org/2000/svg" xmlns:xlink="http://www.w3.org/1999/xlink" viewBox="0 0 50 50" width="50px" height="50px">
<g id="surface40595409">
<path style=" stroke:none;fill-rule:nonzero;fill:rgb(85.882354%,88.627452%,93.725491%);fill-opacity:1;" d="M 29.0625 25 C 29.0625 27.246094 27.246094 29.0625 25 29.0625 C 22.753906 29.0625 20.9375 27.246094 20.9375 25 C 20.9375 22.753906 22.753906 20.9375 25 20.9375 C 27.246094 20.9375 29.0625 22.753906 29.0625 25 Z M 29.0625 25 "/>
<path style=" stroke:none;fill-rule:nonzero;fill:rgb(85.882354%,88.627452%,93.725491%);fill-opacity:1;" d="M 25 29.375 C 22.589844 29.375 20.625 27.414062 20.625 25 C 20.625 22.585938 22.589844 20.625 25 20.625 C 27.410156 20.625 29.375 22.585938 29.375 25 C 29.375 27.414062 27.410156 29.375 25 29.375 Z M 25 21.25 C 22.933594 21.25 21.25 22.933594 21.25 25 C 21.25 27.066406 22.933594 28.75 25 28.75 C 27.066406 28.75 28.75 27.066406 28.75 25 C 28.75 22.933594 27.066406 21.25 25 21.25 Z M 25 21.25 "/>
<path style=" stroke:none;fill-rule:nonzero;fill:rgb(85.882354%,88.627452%,93.725491%);fill-opacity:1;" d="M 15.296875 47.1875 C 14.226562 47.1875 13.253906 46.945312 12.402344 46.460938 C 10.976562 45.652344 9.992188 44.261719 9.472656 42.324219 C 8.871094 40.070312 8.941406 37.074219 9.679688 33.652344 C 3.722656 31.601562 0.3125 28.457031 0.3125 25 C 0.3125 21.542969 3.722656 18.398438 9.679688 16.351562 C 8.941406 12.925781 8.867188 9.929688 9.472656 7.675781 C 9.988281 5.738281 10.976562 4.34375 12.398438 3.539062 C 13.25 3.054688 14.226562 2.8125 15.292969 2.8125 C 18.035156 2.8125 21.476562 4.515625 25 7.621094 C 28.527344 4.519531 31.964844 2.816406 34.703125 2.816406 C 35.773438 2.816406 36.746094 3.058594 37.597656 3.542969 C 39.023438 4.347656 40.007812 5.738281 40.527344 7.675781 C 41.128906 9.929688 41.058594 12.921875 40.316406 16.347656 C 46.277344 18.398438 49.6875 21.542969 49.6875 25 C 49.6875 28.457031 46.277344 31.601562 40.316406 33.652344 C 41.058594 37.078125 41.128906 40.070312 40.527344 42.324219 C 40.007812 44.261719 39.023438 45.652344 37.601562 46.457031 C 36.75 46.941406 35.773438 47.183594 34.703125 47.183594 C 31.964844 47.183594 28.523438 45.480469 25 42.378906 C 21.476562 45.484375 18.035156 47.1875 15.296875 47.1875 Z M 12.085938 34.378906 C 11.464844 37.328125 11.398438 39.84375 11.886719 41.679688 C 12.226562 42.945312 12.8125 43.824219 13.632812 44.289062 C 14.105469 44.554688 14.664062 44.691406 15.296875 44.691406 C 17.417969 44.691406 20.210938 43.265625 23.183594 40.667969 C 21.695312 39.164062 20.238281 37.464844 18.855469 35.609375 C 16.460938 35.351562 14.183594 34.9375 12.085938 34.378906 Z M 26.816406 40.664062 C 29.789062 43.261719 32.582031 44.683594 34.703125 44.6875 C 35.335938 44.6875 35.894531 44.550781 36.367188 44.28125 C 37.1875 43.820312 37.769531 42.941406 38.109375 41.679688 C 38.601562 39.84375 38.53125 37.328125 37.914062 34.378906 C 35.8125 34.9375 33.535156 35.351562 31.140625 35.609375 C 29.757812 37.46875 28.304688 39.164062 26.816406 40.664062 Z M 22.230469 35.871094 C 23.136719 36.980469 24.066406 38.015625 25 38.957031 C 25.933594 38.015625 26.863281 36.980469 27.769531 35.871094 C 26.835938 35.914062 25.910156 35.9375 25 35.9375 C 24.089844 35.9375 23.160156 35.914062 22.230469 35.871094 Z M 20.21875 33.238281 C 21.777344 33.371094 23.386719 33.4375 25 33.4375 C 26.617188 33.4375 28.222656 33.371094 29.777344 33.238281 C 30.707031 31.933594 31.59375 30.570312 32.414062 29.179688 C 33.203125 27.832031 33.949219 26.425781 34.628906 25 C 33.953125 23.578125 33.207031 22.171875 32.414062 20.820312 C 31.59375 19.433594 30.710938 18.066406 29.777344 16.761719 C 28.222656 16.628906 26.617188 16.5625 25 16.5625 C 23.382812 16.5625 21.777344 16.628906 20.21875 16.761719 C 19.289062 18.066406 18.402344 19.433594 17.582031 20.824219 C 16.789062 22.171875 16.046875 23.578125 15.367188 25 C 16.042969 26.421875 16.789062 27.828125 17.582031 29.179688 C 18.398438 30.5625 19.285156 31.925781 20.21875 33.238281 Z M 35.933594 27.988281 C 35.492188 28.828125 35.03125 29.652344 34.566406 30.445312 C 34.09375 31.246094 33.59375 32.050781 33.074219 32.84375 C 34.558594 32.613281 35.976562 32.320312 37.308594 31.96875 C 36.9375 30.6875 36.476562 29.351562 35.933594 27.988281 Z M 12.691406 31.96875 C 14.019531 32.320312 15.4375 32.613281 16.921875 32.84375 C 16.398438 32.046875 15.894531 31.242188 15.429688 30.445312 C 14.964844 29.652344 14.503906 28.828125 14.0625 27.988281 C 13.523438 29.347656 13.0625 30.683594 12.691406 31.96875 Z M 37.386719 25 C 38.339844 27.121094 39.117188 29.214844 39.703125 31.234375 C 44.328125 29.609375 47.1875 27.234375 47.1875 25 C 47.1875 22.765625 44.328125 20.390625 39.703125 18.765625 C 39.121094 20.785156 38.339844 22.878906 37.386719 25 Z M 10.296875 18.765625 C 5.671875 20.390625 2.8125 22.765625 2.8125 25 C 2.8125 27.234375 5.671875 29.609375 10.296875 31.234375 C 10.878906 29.214844 11.65625 27.117188 12.613281 25 C 11.65625 22.882812 10.878906 20.789062 10.296875 18.765625 Z M 12.6875 18.03125 C 13.0625 19.316406 13.523438 20.652344 14.0625 22.011719 C 14.503906 21.171875 14.960938 20.347656 15.429688 19.554688 C 15.898438 18.753906 16.398438 17.953125 16.921875 17.15625 C 15.4375 17.386719 14.019531 17.679688 12.6875 18.03125 Z M 33.078125 17.15625 C 33.597656 17.953125 34.101562 18.757812 34.566406 19.554688 C 35.035156 20.347656 35.492188 21.171875 35.933594 22.011719 C 36.476562 20.652344 36.9375 19.316406 37.308594 18.03125 C 35.976562 17.679688 34.558594 17.386719 33.078125 17.15625 Z M 15.292969 5.3125 C 14.664062 5.3125 14.105469 5.445312 13.632812 5.714844 C 12.8125 6.179688 12.226562 7.054688 11.886719 8.324219 C 11.394531 10.15625 11.464844 12.675781 12.085938 15.621094 C 14.183594 15.0625 16.460938 14.648438 18.855469 14.390625 C 20.242188 12.53125 21.695312 10.835938 23.1875 9.335938 C 20.210938 6.738281 17.417969 5.3125 15.292969 5.3125 Z M 31.140625 14.390625 C 33.535156 14.648438 35.8125 15.0625 37.914062 15.621094 C 38.53125 12.671875 38.601562 10.15625 38.109375 8.320312 C 37.773438 7.058594 37.1875 6.179688 36.367188 5.71875 C 35.894531 5.449219 35.335938 5.3125 34.703125 5.3125 C 32.582031 5.3125 29.792969 6.738281 26.816406 9.335938 C 28.304688 10.835938 29.757812 12.53125 31.140625 14.390625 Z M 25 14.0625 C 25.910156 14.0625 26.835938 14.085938 27.769531 14.128906 C 26.863281 13.019531 25.933594 11.984375 25 11.042969 C 24.066406 11.988281 23.136719 13.023438 22.230469 14.128906 C 23.164062 14.085938 24.089844 14.0625 25 14.0625 Z M 25 14.0625 "/>
<path style=" stroke:none;fill-rule:nonzero;fill:rgb(85.882354%,88.627452%,93.725491%);fill-opacity:1;" d="M 15.292969 3.125 C 18.101562 3.125 21.542969 4.941406 25 8.039062 C 28.460938 4.945312 31.898438 3.128906 34.703125 3.128906 C 35.71875 3.128906 36.640625 3.359375 37.445312 3.8125 C 38.792969 4.578125 39.726562 5.902344 40.222656 7.753906 C 40.898438 10.203125 40.757812 13.21875 39.953125 16.554688 C 45.71875 18.480469 49.375 21.519531 49.375 25 C 49.375 28.480469 45.71875 31.519531 39.953125 33.445312 C 40.789062 37.054688 40.929688 40.148438 40.222656 42.246094 C 39.726562 44.09375 38.792969 45.421875 37.445312 46.1875 C 36.640625 46.640625 35.910156 46.875 34.894531 46.875 C 34.894531 46.875 34.636719 46.875 34.636719 46.875 C 31.828125 46.875 28.457031 45.054688 25 41.960938 C 21.539062 45.058594 18.101562 46.875 15.296875 46.875 C 14.28125 46.875 13.359375 46.644531 12.554688 46.191406 C 11.207031 45.425781 10.269531 44.097656 9.773438 42.242188 C 9.03125 39.921875 9.179688 36.867188 10.046875 33.445312 C 4.28125 31.519531 0.625 28.480469 0.625 25 C 0.625 21.519531 4.28125 18.480469 10.046875 16.554688 C 9.617188 14.644531 9.339844 12.867188 9.332031 11.25 C 9.324219 9.972656 9.5 8.78125 9.773438 7.757812 C 10.269531 5.902344 11.203125 4.574219 12.554688 3.808594 C 13.359375 3.355469 14.28125 3.125 15.292969 3.125 M 11.847656 16.007812 C 14.023438 15.410156 16.433594 14.960938 19.027344 14.6875 C 20.515625 12.679688 22.074219 10.875 23.640625 9.320312 C 20.597656 6.605469 17.632812 4.996094 15.292969 4.996094 C 14.609375 4.996094 13.996094 5.144531 13.480469 5.441406 C 12.582031 5.949219 11.945312 6.890625 11.585938 8.242188 C 11.046875 10.242188 11.171875 12.949219 11.847656 16.007812 M 38.148438 16.007812 C 38.828125 12.945312 38.949219 10.242188 38.414062 8.238281 C 38.050781 6.890625 37.414062 5.953125 36.519531 5.445312 C 36.003906 5.152344 35.390625 5 34.703125 5 C 32.367188 5 29.40625 6.605469 26.359375 9.320312 C 27.929688 10.875 29.484375 12.679688 30.972656 14.683594 C 33.5625 14.960938 35.976562 15.410156 38.148438 16.007812 M 21.546875 14.480469 C 22.675781 14.410156 23.804688 14.355469 24.976562 14.355469 C 26.152344 14.355469 27.324219 14.414062 28.453125 14.480469 C 27.320312 13.054688 26.160156 11.753906 25 10.601562 C 23.839844 11.753906 22.679688 13.054688 21.546875 14.480469 M 25 33.75 C 26.726562 33.75 28.378906 33.675781 29.949219 33.535156 C 30.898438 32.214844 31.816406 30.808594 32.679688 29.335938 C 33.527344 27.898438 34.292969 26.445312 34.976562 25 C 34.292969 23.554688 33.527344 22.101562 32.683594 20.664062 C 31.816406 19.191406 30.898438 17.789062 29.949219 16.464844 C 28.378906 16.324219 26.726562 16.25 25 16.25 C 23.273438 16.25 21.621094 16.324219 20.050781 16.464844 C 19.097656 17.789062 18.179688 19.191406 17.316406 20.664062 C 16.46875 22.101562 15.703125 23.554688 15.023438 25 C 15.703125 26.445312 16.46875 27.898438 17.3125 29.335938 C 18.179688 30.808594 19.097656 32.210938 20.046875 33.535156 C 21.621094 33.675781 23.273438 33.75 25 33.75 M 35.964844 22.757812 C 36.667969 21.066406 37.25 19.402344 37.695312 17.8125 C 36.097656 17.375 34.335938 17.011719 32.425781 16.746094 C 33.070312 17.699219 33.695312 18.6875 34.296875 19.714844 C 34.894531 20.726562 35.449219 21.742188 35.964844 22.757812 M 14.03125 22.757812 C 14.546875 21.742188 15.101562 20.726562 15.699219 19.714844 C 16.300781 18.6875 16.925781 17.699219 17.570312 16.746094 C 15.660156 17.011719 13.898438 17.375 12.300781 17.8125 C 12.746094 19.402344 13.328125 21.066406 14.03125 22.757812 M 39.492188 31.640625 C 44.539062 29.929688 47.5 27.417969 47.5 25 C 47.5 22.582031 44.539062 20.070312 39.492188 18.359375 C 38.898438 20.488281 38.074219 22.726562 37.042969 25 C 38.074219 27.273438 38.898438 29.511719 39.492188 31.640625 M 10.507812 31.636719 C 11.101562 29.511719 11.921875 27.273438 12.953125 25 C 11.921875 22.726562 11.101562 20.492188 10.503906 18.363281 C 5.457031 20.074219 2.5 22.585938 2.5 25 C 2.5 27.417969 5.460938 29.929688 10.507812 31.636719 M 32.425781 33.253906 C 34.335938 32.988281 36.097656 32.625 37.695312 32.1875 C 37.25 30.597656 36.667969 28.933594 35.964844 27.242188 C 35.449219 28.257812 34.894531 29.273438 34.296875 30.285156 C 33.695312 31.3125 33.070312 32.300781 32.425781 33.253906 M 17.566406 33.253906 C 16.925781 32.300781 16.300781 31.3125 15.699219 30.289062 C 15.101562 29.277344 14.546875 28.257812 14.03125 27.242188 C 13.328125 28.9375 12.746094 30.597656 12.304688 32.1875 C 13.898438 32.625 15.660156 32.988281 17.566406 33.253906 M 15.296875 45 C 17.632812 45 20.597656 43.394531 23.640625 40.679688 C 22.070312 39.125 20.511719 37.320312 19.023438 35.3125 C 16.433594 35.039062 14.023438 34.589844 11.851562 33.992188 C 11.171875 37.050781 11.050781 39.757812 11.585938 41.757812 C 11.949219 43.109375 12.585938 44.050781 13.480469 44.558594 C 13.996094 44.851562 14.609375 45 15.296875 45 M 34.703125 45 C 35.390625 45 36 44.847656 36.519531 44.554688 C 37.414062 44.046875 38.050781 43.109375 38.410156 41.757812 C 38.949219 39.757812 38.824219 37.050781 38.148438 33.992188 C 35.976562 34.589844 33.5625 35.039062 30.972656 35.3125 C 29.484375 37.320312 27.929688 39.125 26.359375 40.679688 C 29.402344 43.390625 32.367188 44.996094 34.703125 45 M 25 39.398438 C 26.160156 38.246094 27.320312 36.945312 28.453125 35.519531 C 27.324219 35.589844 26.226562 35.730469 25.050781 35.730469 C 23.875 35.730469 22.671875 35.589844 21.546875 35.519531 C 22.675781 36.945312 23.839844 38.25 25 39.398438 M 15.074219 2.546875 C 13.949219 2.546875 13.144531 2.757812 12.246094 3.265625 C 10.746094 4.117188 9.710938 5.574219 9.171875 7.59375 C 8.570312 9.835938 8.621094 12.78125 9.316406 16.144531 C 3.386719 18.242188 0 21.453125 0 25 C 0 28.546875 3.386719 31.757812 9.316406 33.855469 C 8.621094 37.21875 8.570312 40.164062 9.171875 42.40625 C 9.710938 44.425781 10.746094 45.882812 12.246094 46.734375 C 13.148438 47.246094 14.226562 47.460938 15.351562 47.460938 C 18.15625 47.460938 21.449219 45.875 25 42.796875 C 28.554688 45.875 31.898438 47.496094 34.703125 47.5 C 35.828125 47.5 36.855469 47.238281 37.753906 46.730469 C 39.253906 45.878906 40.285156 44.425781 40.828125 42.40625 C 41.425781 40.164062 41.375 37.21875 40.679688 33.855469 C 46.613281 31.757812 50 28.546875 50 25 C 50 21.453125 46.613281 18.242188 40.679688 16.144531 C 41.375 12.78125 41.429688 9.835938 40.828125 7.59375 C 40.285156 5.574219 39.25 4.121094 37.753906 3.269531 C 36.855469 2.761719 35.828125 2.5 34.703125 2.5 C 31.902344 2.5 28.554688 4.125 25 7.207031 C 21.449219 4.125 18.085938 2.542969 15.28125 2.542969 Z M 12.324219 15.234375 C 12.035156 13.78125 11.84375 12.421875 11.832031 11.226562 C 11.824219 10.152344 11.96875 9.21875 12.1875 8.402344 C 12.503906 7.21875 13.042969 6.40625 13.789062 5.984375 C 14.210938 5.742188 14.726562 5.582031 15.300781 5.582031 C 17.289062 5.582031 19.90625 6.941406 22.730469 9.351562 C 21.339844 10.773438 19.984375 12.363281 18.6875 14.09375 C 16.445312 14.34375 14.3125 14.726562 12.324219 15.234375 Z M 27.273438 9.355469 C 30.09375 6.945312 32.71875 5.625 34.703125 5.625 C 35.28125 5.625 35.789062 5.75 36.210938 5.988281 C 36.957031 6.410156 37.492188 7.222656 37.808594 8.402344 C 38.355469 10.164062 38.285156 12.503906 37.671875 15.234375 C 35.6875 14.726562 33.550781 14.34375 31.3125 14.09375 C 30.015625 12.367188 28.660156 10.773438 27.273438 9.355469 Z M 22.921875 13.789062 C 23.605469 12.976562 24.300781 12.207031 25 11.488281 C 25.699219 12.207031 26.394531 12.976562 27.078125 13.789062 C 26.378906 13.761719 25.683594 13.75 25 13.75 C 24.316406 13.75 23.621094 13.761719 22.921875 13.789062 Z M 20.390625 17.0625 C 21.894531 16.9375 23.441406 16.847656 25 16.847656 C 26.558594 16.847656 28.105469 16.9375 29.609375 17.0625 C 30.503906 18.324219 31.355469 19.640625 32.144531 20.980469 C 32.90625 22.28125 33.625 23.628906 34.28125 25 C 33.625 26.371094 32.90625 27.71875 32.140625 29.019531 C 31.355469 30.359375 30.503906 31.675781 29.609375 32.9375 C 28.105469 33.0625 26.558594 33.230469 25 33.230469 C 23.441406 33.230469 21.890625 33.0625 20.390625 32.9375 C 19.492188 31.675781 18.640625 30.359375 17.851562 29.019531 C 17.089844 27.71875 16.371094 26.371094 15.714844 25 C 16.371094 23.628906 17.089844 22.277344 17.851562 20.980469 C 18.640625 19.640625 19.496094 18.324219 20.390625 17.0625 Z M 35.890625 21.265625 C 35.546875 20.628906 35.195312 20.003906 34.835938 19.394531 C 34.480469 18.789062 34.109375 18.183594 33.722656 17.578125 C 34.828125 17.765625 35.898438 17.992188 36.917969 18.253906 C 36.625 19.230469 36.28125 20.238281 35.890625 21.265625 Z M 13.078125 18.253906 C 14.097656 17.992188 15.167969 17.765625 16.277344 17.578125 C 15.890625 18.183594 15.515625 18.789062 15.160156 19.394531 C 14.804688 20.003906 14.453125 20.628906 14.109375 21.265625 C 13.714844 20.238281 13.371094 19.234375 13.078125 18.253906 Z M 37.726562 25 C 38.613281 23.023438 39.34375 21.066406 39.910156 19.171875 C 44.222656 20.746094 46.875 22.949219 46.875 25 C 46.875 27.050781 44.222656 29.253906 39.910156 30.828125 C 39.34375 28.933594 38.613281 26.976562 37.726562 25 Z M 10.089844 30.828125 C 5.777344 29.253906 3.125 27.046875 3.125 25 C 3.125 22.953125 5.777344 20.746094 10.089844 19.171875 C 10.652344 21.066406 11.382812 23.023438 12.269531 25 C 11.386719 26.976562 10.652344 28.933594 10.089844 30.828125 Z M 33.71875 32.421875 C 34.105469 31.816406 34.480469 31.210938 34.835938 30.605469 C 35.195312 29.996094 35.546875 29.371094 35.890625 28.734375 C 36.28125 29.761719 36.625 30.769531 36.917969 31.75 C 35.898438 32.007812 34.828125 32.234375 33.71875 32.421875 Z M 13.082031 31.746094 C 13.371094 30.769531 13.714844 29.761719 14.109375 28.738281 C 14.449219 29.371094 14.800781 29.996094 15.160156 30.605469 C 15.515625 31.210938 15.886719 31.816406 16.273438 32.421875 C 15.167969 32.234375 14.097656 32.007812 13.082031 31.746094 Z M 15.296875 44.375 C 14.71875 44.375 14.210938 44.253906 13.789062 44.015625 C 13.042969 43.59375 12.507812 42.78125 12.191406 41.597656 C 11.671875 39.820312 11.730469 37.476562 12.328125 34.765625 C 14.3125 35.273438 16.445312 35.65625 18.6875 35.90625 C 19.984375 37.632812 21.339844 39.226562 22.726562 40.648438 C 19.90625 43.058594 17.28125 44.378906 15.296875 44.375 Z M 31.3125 35.90625 C 33.550781 35.65625 35.6875 35.273438 37.671875 34.765625 C 38.363281 37.726562 38.417969 40.089844 37.808594 41.597656 C 37.492188 42.777344 36.957031 43.589844 36.214844 44.011719 C 35.789062 44.25 35.28125 44.371094 34.703125 44.371094 L 34.703125 44.996094 L 34.703125 44.371094 C 32.71875 44.371094 30.09375 43.054688 27.273438 40.648438 C 28.660156 39.226562 30.015625 37.636719 31.3125 35.90625 Z M 25 38.511719 C 24.300781 37.796875 23.605469 37.027344 22.917969 36.210938 C 23.617188 36.238281 24.316406 36.25 25 36.25 C 25.683594 36.25 26.378906 36.238281 27.078125 36.210938 C 26.394531 37.027344 25.699219 37.796875 25 38.511719 Z M 25 38.511719 "/>
</g>
</svg>
